<!DOCTYPE svg PUBLIC "-//W3C//DTD SVG 1.1//EN" "http://www.w3.org/Graphics/SVG/1.1/DTD/svg11.dtd">
<!-- Uploaded to: SVG Repo, www.svgrepo.com, Transformed by: SVG Repo Mixer Tools -->
<svg height="800px" width="800px" version="1.1" id="Layer_1" xmlns="http://www.w3.org/2000/svg" xmlns:xlink="http://www.w3.org/1999/xlink" viewBox="0 0 512 512" xml:space="preserve" fill="#000000">
<g id="SVGRepo_bgCarrier" stroke-width="0"/>
<g id="SVGRepo_tracerCarrier" stroke-linecap="round" stroke-linejoin="round"/>
<g id="SVGRepo_iconCarrier"> <path style="fill:#D2CFCE;" d="M477.988,315.482c5.274-19.449,25.841-29.659,25.841-59.482c0-29.823-20.568-40.032-25.841-59.482 c-5.158-19.48,7.55-38.605-7.362-64.432s-37.829-24.385-52.12-38.593c-14.207-14.291-12.764-37.208-38.592-52.119 c-25.828-14.912-44.952-2.204-64.432-7.362c-19.449-5.272-29.659-25.841-59.482-25.841s-40.032,20.568-59.482,25.841 c-19.48,5.158-38.605-7.55-64.432,7.362c-25.827,14.912-24.384,37.829-38.592,52.12c-14.291,14.207-37.208,12.765-52.12,38.592 s-2.204,44.952-7.362,64.432C28.738,215.968,8.17,226.178,8.17,256c0,29.822,20.568,40.032,25.841,59.482 c5.158,19.48-7.55,38.605,7.362,64.432s37.829,24.385,52.119,38.593c14.207,14.291,12.765,37.208,38.593,52.12 c25.828,14.911,44.952,2.203,64.432,7.362c19.451,5.273,29.66,25.84,59.482,25.84s40.032-20.568,59.482-25.841 c19.48-5.158,38.605,7.549,64.432-7.362c25.828-14.912,24.384-37.829,38.592-52.12c14.291-14.207,37.208-12.765,52.12-38.593 S472.83,334.962,477.988,315.482z"/> <path style="fill:#8C8484;" d="M213.08,249.653c0,0-4.658,18.228-10.351,40.507c-5.693,22.28,12.103,41.882,39.547,35.573 l7.067-2.329L303,293.182l4.854-65.316L213.08,249.653z"/> <g> <path style="fill:#A8A2A2;" d="M255.999,67.602c-34.565,0-62.587,28.022-62.587,62.587v97.677l125.173-28.775v-68.902 C318.586,95.623,290.566,67.602,255.999,67.602z"/> <path style="fill:#A8A2A2;" d="M303,293.181c6.472,6.471,6.472,16.964,0,23.436l-38.443,38.442l32.779,32.779 c2.337,2.337,3.036,5.852,1.771,8.903c-1.265,3.053-4.244,5.044-7.548,5.044H228.33c-4.512,0-8.17-3.658-8.17-8.17 s3.658-8.17,8.17-8.17h19.26c-8.778-8.655-16.467-16.245-18.539-18.316c-6.471-6.472-6.471-16.965,0-23.435l46.872-46.872 l3.641-3.641C286.036,286.71,296.529,286.71,303,293.181z"/> </g> <path d="M495.612,300.046C502.913,289.71,512,276.848,512,256s-9.087-33.71-16.388-44.046c-4.33-6.129-8.07-11.423-9.726-17.528 c-1.632-6.16-1.039-12.615-0.354-20.089c1.156-12.601,2.594-28.283-7.83-46.338c-10.424-18.055-24.724-24.65-36.216-29.951 c-6.815-3.144-12.701-5.857-17.186-10.316c-4.493-4.519-7.207-10.404-10.35-17.22c-5.3-11.492-11.896-25.793-29.951-36.217 c-18.055-10.423-33.736-8.986-46.339-7.83c-7.473,0.686-13.926,1.278-20.041-0.341c-6.151-1.668-11.445-5.408-17.575-9.738 C289.71,9.088,276.848,0.001,255.999,0.001s-33.709,9.086-44.045,16.387c-6.13,4.33-11.423,8.07-17.528,9.726 c-6.16,1.632-12.615,1.04-20.088,0.354c-12.601-1.155-28.284-2.594-46.339,7.83c-18.054,10.423-24.65,24.724-29.951,36.216 c-3.144,6.815-5.857,12.701-10.317,17.186c-4.519,4.493-10.404,7.207-17.219,10.35c-11.491,5.3-25.792,11.896-36.216,29.951 s-8.986,33.736-7.83,46.338c0.685,7.474,1.277,13.929-0.342,20.042c-1.668,6.151-5.408,11.445-9.738,17.574 C9.087,222.291,0,235.153,0,256s9.087,33.71,16.388,44.046c4.33,6.129,8.07,11.423,9.726,17.528 c1.632,6.16,1.039,12.615,0.354,20.089c-1.156,12.601-2.594,28.283,7.83,46.338c10.424,18.055,24.724,24.65,36.216,29.951 c6.815,3.143,12.701,5.858,17.186,10.316c4.494,4.52,7.207,10.406,10.351,17.221c5.3,11.491,11.896,25.792,29.951,36.216 s33.735,8.985,46.339,7.83c7.473-0.685,13.927-1.277,20.041,0.341c6.151,1.668,11.445,5.408,17.575,9.738 c10.334,7.3,23.196,16.386,44.043,16.386s33.709-9.086,44.045-16.387c6.13-4.33,11.423-8.07,17.528-9.726 c6.161-1.631,12.616-1.039,20.088-0.354c12.602,1.155,28.284,2.594,46.339-7.83c18.054-10.423,24.65-24.724,29.951-36.216 c3.144-6.815,5.858-12.701,10.316-17.186c4.519-4.493,10.404-7.207,17.22-10.35c11.492-5.3,25.793-11.896,36.216-29.951 c10.423-18.055,8.986-33.736,7.83-46.338c-0.684-7.463-1.275-13.909,0.346-20.061C487.549,311.459,491.286,306.169,495.612,300.046z M482.266,290.618c-4.788,6.778-9.738,13.786-12.163,22.727c-0.004,0.015-0.009,0.031-0.012,0.046 c-2.372,8.956-1.588,17.501-0.83,25.763c1.089,11.888,2.12,23.116-5.709,36.675c-7.829,13.56-18.068,18.283-28.908,23.283 c-7.535,3.476-15.326,7.069-21.93,13.634c-6.532,6.57-10.125,14.362-13.601,21.896c-5,10.84-9.723,21.08-23.283,28.908 c-13.56,7.829-24.789,6.799-36.675,5.709c-8.263-0.757-16.806-1.541-25.809,0.842c-8.941,2.425-15.95,7.375-22.727,12.163 c-9.751,6.888-18.96,13.394-34.619,13.394s-24.867-6.506-34.617-13.394c-6.777-4.788-13.785-9.738-22.773-12.175 c-4.512-1.195-8.917-1.588-13.237-1.588c-4.255,0-8.425,0.382-12.527,0.758c-11.886,1.09-23.116,2.12-36.675-5.709 c-13.559-7.829-18.283-18.068-23.283-28.908c-3.475-7.535-7.07-15.326-13.636-21.931c-6.57-6.532-14.361-10.125-21.896-13.601 c-10.84-5-21.08-9.723-28.908-23.283c-7.829-13.559-6.799-24.787-5.709-36.675c0.758-8.263,1.541-16.808-0.842-25.81 c-2.425-8.941-7.375-15.949-12.163-22.727C22.846,280.868,16.34,271.658,16.34,256s6.506-24.867,13.394-34.617 c4.788-6.778,9.738-13.786,12.175-22.773c2.372-8.956,1.588-17.501,0.83-25.763c-1.089-11.888-2.12-23.116,5.709-36.675 c7.829-13.56,18.068-18.283,28.908-23.283c7.535-3.475,15.326-7.069,21.93-13.634c6.532-6.57,10.126-14.362,13.601-21.897 c5-10.84,9.723-21.079,23.283-28.908s24.791-6.798,36.675-5.709c8.264,0.757,16.807,1.543,25.809-0.842 c8.941-2.425,15.95-7.375,22.727-12.163c9.751-6.887,18.96-13.394,34.618-13.394s24.867,6.506,34.617,13.394 c6.777,4.788,13.785,9.738,22.773,12.175c8.956,2.372,17.499,1.588,25.763,0.83c11.888-1.089,23.116-2.119,36.675,5.709 c13.56,7.829,18.283,18.068,23.283,28.908c3.475,7.535,7.069,15.326,13.634,21.93c6.57,6.532,14.362,10.126,21.896,13.601 c10.84,5,21.08,9.723,28.908,23.283c7.829,13.559,6.799,24.787,5.709,36.675c-0.758,8.263-1.541,16.808,0.842,25.81 c2.425,8.941,7.375,15.949,12.163,22.727c6.888,9.75,13.394,18.959,13.394,34.617S489.154,280.868,482.266,290.618z M71.058,322.575 c-1.057,2.071-2.856,3.607-5.067,4.326c-0.886,0.289-1.796,0.431-2.704,0.431c-1.355,0-2.702-0.32-3.946-0.953 c-2.075-1.056-3.613-2.857-4.335-5.071c-0.721-2.216-0.535-4.579,0.524-6.654c1.057-2.072,2.856-3.609,5.069-4.329 c0.002,0,0.005-0.001,0.009-0.002c4.569-1.482,9.489,1.031,10.974,5.595C72.305,318.135,72.119,320.499,71.058,322.575z M88.078,352.963c2.394,4.147,0.967,9.486-3.187,11.891c-1.373,0.793-2.872,1.169-4.352,1.169c-3.015,0-5.948-1.562-7.56-4.354 c-2.403-4.161-0.973-9.502,3.189-11.906c2.017-1.166,4.366-1.475,6.616-0.87C85.034,349.498,86.915,350.942,88.078,352.963z M111.901,385.75c3.21,3.567,2.925,9.085-0.639,12.301c-1.669,1.499-3.758,2.236-5.838,2.236c-2.384,0-4.755-0.968-6.47-2.869 c-3.221-3.586-2.927-9.105,0.641-12.315c1.729-1.556,3.962-2.351,6.282-2.226C108.203,382.999,110.342,384.018,111.901,385.75z M145.509,418.556c0.366,2.301-0.186,4.606-1.556,6.49c-1.704,2.343-4.367,3.588-7.064,3.588c-1.772,0-3.561-0.538-5.103-1.655 c-3.896-2.838-4.756-8.295-1.935-12.178c1.369-1.885,3.391-3.123,5.693-3.486c2.3-0.362,4.607,0.193,6.489,1.565 C143.903,414.236,145.144,416.256,145.509,418.556z M264.714,458.621c0,4.805-3.91,8.715-8.715,8.715s-8.715-3.91-8.715-8.715 s3.91-8.715,8.715-8.715S264.714,453.816,264.714,458.621z M413.061,397.403c-1.726,1.912-4.107,2.885-6.495,2.885 c-2.074,0-4.154-0.734-5.813-2.223c-0.004-0.004-0.01-0.009-0.015-0.014c-3.563-3.216-3.85-8.734-0.638-12.301 c1.558-1.731,3.698-2.751,6.024-2.872c2.331-0.131,4.561,0.672,6.29,2.233C415.974,388.314,416.268,393.831,413.061,397.403z M439.022,361.669c-1.612,2.792-4.548,4.355-7.561,4.355c-1.477,0-2.974-0.376-4.343-1.167c-0.002-0.001-0.004-0.002-0.007-0.003 c-4.155-2.405-5.583-7.744-3.181-11.901c1.157-2.01,3.037-3.455,5.289-4.059c2.253-0.602,4.605-0.293,6.622,0.875 C439.994,352.168,441.425,357.509,439.022,361.669z M456.468,314.655c1.059,2.075,1.245,4.439,0.524,6.654 c-0.72,2.214-2.259,4.015-4.335,5.071c-1.243,0.633-2.588,0.953-3.945,0.953c-0.909,0-1.82-0.144-2.709-0.434 c-2.209-0.72-4.007-2.255-5.062-4.325c-1.06-2.076-1.246-4.44-0.525-6.657c1.485-4.564,6.408-7.076,10.974-5.595 C453.611,311.045,455.411,312.582,456.468,314.655z M55.532,197.346c-1.059-2.075-1.245-4.439-0.524-6.654 c0.72-2.214,2.259-4.015,4.335-5.071c2.075-1.057,4.44-1.242,6.653-0.52c2.206,0.718,4.006,2.254,5.062,4.325 c1.06,2.076,1.246,4.44,0.525,6.657c-1.196,3.677-4.622,6.02-8.295,6.02c-0.888,0-1.79-0.136-2.679-0.425 c-0.002-0.001-0.005-0.002-0.009-0.002C58.389,200.956,56.589,199.419,55.532,197.346z M72.978,150.332 c2.404-4.16,7.744-5.593,11.906-3.189c4.161,2.409,5.588,7.748,3.187,11.906c-1.157,2.01-3.037,3.455-5.289,4.059 c-0.752,0.202-1.514,0.301-2.271,0.301c-1.51,0-3-0.395-4.343-1.172C72.006,159.834,70.575,154.492,72.978,150.332z M98.939,114.598 c3.225-3.573,8.74-3.865,12.308-0.661c3.579,3.229,3.865,8.748,0.654,12.315c-1.558,1.731-3.698,2.751-6.024,2.872 c-0.155,0.009-0.309,0.012-0.463,0.012c-2.156,0-4.206-0.785-5.819-2.238C96.026,123.688,95.732,118.17,98.939,114.598z M400.099,126.251c-3.21-3.567-2.925-9.085,0.639-12.301c0.004-0.004,0.01-0.01,0.015-0.014c3.567-3.203,9.083-2.913,12.293,0.646 c3.221,3.586,2.927,9.105-0.641,12.315c-1.607,1.451-3.66,2.238-5.819,2.238c-0.155,0-0.308-0.003-0.463-0.012 C403.797,129.002,401.658,127.983,400.099,126.251z M423.922,159.038c-2.394-4.147-0.967-9.486,3.187-11.891 c0.002-0.001,0.004-0.002,0.007-0.003c4.161-2.403,9.501-0.974,11.906,3.189c2.403,4.161,0.973,9.502-3.189,11.906 c-1.34,0.776-2.831,1.172-4.342,1.172c-0.758,0-1.521-0.1-2.272-0.302C426.966,162.504,425.085,161.059,423.922,159.038z M456.992,190.692c0.721,2.216,0.535,4.579-0.524,6.654c-1.057,2.072-2.856,3.609-5.069,4.329c-0.891,0.29-1.796,0.427-2.686,0.427 c-3.677,0-7.102-2.343-8.297-6.019c-0.721-2.217-0.535-4.581,0.525-6.657c1.056-2.069,2.854-3.605,5.062-4.325 c2.214-0.722,4.577-0.538,6.653,0.52C454.732,186.676,456.272,188.478,456.992,190.692z M382.148,414.801 c2.821,3.88,1.961,9.339-1.918,12.166c-1.55,1.123-3.345,1.665-5.124,1.665c-2.698,0-5.356-1.244-7.057-3.584 c-0.001-0.001-0.001-0.002-0.002-0.002c-1.369-1.885-1.922-4.19-1.556-6.49c0.365-2.301,1.606-4.32,3.491-5.688 c1.866-1.362,4.17-1.915,6.473-1.553C378.757,411.679,380.778,412.917,382.148,414.801z M316.024,304.899 c0-5.237-1.638-10.209-4.633-14.38l4.611-62.048c0.192-2.588-0.856-5.113-2.826-6.804c-1.968-1.692-4.625-2.346-7.153-1.765 L211.25,241.69c-2.98,0.685-5.329,2.977-6.085,5.94l-10.351,40.508c-3.374,13.204-0.081,26.526,8.811,35.635 c5.999,6.147,13.903,9.872,22.822,10.974l-3.17,3.17c-9.646,9.646-9.646,25.343,0,34.99c1.632,1.632,6.672,6.611,12.68,12.54h-7.624 c-4.512,0-8.17,3.658-8.17,8.17c0,4.512,3.658,8.17,8.17,8.17h74.776c3.305,0,6.283-1.99,7.548-5.044 c1.265-3.053,0.565-6.567-1.771-8.903l-32.776-32.774l32.67-32.67C313.45,317.721,316.024,311.508,316.024,304.899z M297.223,310.839l-38.447,38.447c-3.191,3.191-3.191,8.364,0,11.554l24.605,24.605h-24.153 c-10.17-10.024-21.781-21.476-24.398-24.093c-3.276-3.276-3.276-8.606,0-11.882l46.872-46.872c3.191-3.191,3.191-8.364,0-11.554 c-3.191-3.191-8.364-3.191-11.554,0l-25.208,25.208l-4.845,1.597c-10.158,2.243-19.173,0.249-24.776-5.491 c-4.95-5.071-6.653-12.425-4.672-20.176l9.119-35.683l43.019-9.889c-2.439,17.734-13.456,32.48-30.277,39.744 c-4.143,1.789-6.05,6.597-4.262,10.74c1.333,3.087,4.342,4.933,7.505,4.933c1.081,0,2.18-0.216,3.235-0.672 c24.176-10.44,39.263-32.518,40.551-58.597l19.349-4.448l-4.033,54.264c-0.007,0.092-0.002,0.181-0.007,0.272 c-0.007,0.148-0.013,0.296-0.011,0.446c0.001,0.135,0.011,0.269,0.02,0.403c0.009,0.129,0.016,0.257,0.029,0.386 c0.016,0.144,0.039,0.285,0.062,0.427c0.02,0.12,0.039,0.239,0.064,0.357c0.029,0.139,0.065,0.278,0.101,0.415 c0.032,0.121,0.064,0.241,0.102,0.359c0.041,0.13,0.086,0.255,0.134,0.382c0.046,0.125,0.094,0.249,0.147,0.374 c0.049,0.114,0.104,0.227,0.158,0.34c0.062,0.127,0.125,0.255,0.195,0.381c0.059,0.107,0.121,0.209,0.184,0.313 c0.075,0.122,0.15,0.245,0.232,0.364c0.072,0.106,0.15,0.207,0.227,0.309c0.082,0.108,0.163,0.217,0.252,0.321 c0.094,0.112,0.194,0.219,0.294,0.325c0.064,0.069,0.12,0.141,0.186,0.206c1.587,1.586,2.461,3.696,2.461,5.94 C299.685,307.139,298.809,309.252,297.223,310.839z M188.324,234.257c1.46,1.162,3.258,1.779,5.088,1.779 c0.611,0,1.224-0.069,1.83-0.207l125.173-28.775c3.71-0.853,6.34-4.156,6.34-7.963v-68.902c0-39.015-31.742-70.757-70.757-70.757 s-70.757,31.742-70.757,70.757v97.677C185.243,230.354,186.377,232.707,188.324,234.257z M255.999,75.772 c30.005,0,54.417,24.411,54.417,54.417v62.396l-108.832,25.019v-17.618h6.218c4.512,0,8.17-3.658,8.17-8.17 c0-4.512-3.658-8.17-8.17-8.17h-6.218v-30.899h20.38c-0.703,2.531-0.173,5.354,1.661,7.5c1.616,1.89,3.908,2.861,6.214,2.861 c1.878,0,3.766-0.644,5.305-1.96l12.12-10.362c2.6-2.223,3.54-5.83,2.355-9.04c-1.184-3.209-4.244-5.34-7.665-5.34h-40.372v-6.218 C201.584,100.183,225.995,75.772,255.999,75.772z M273.23,158.325v-13.749c0-4.512,3.658-8.17,8.17-8.17s8.17,3.658,8.17,8.17 v13.749c0,4.512-3.658,8.17-8.17,8.17C276.888,166.495,273.23,162.837,273.23,158.325z M115.472,215.012v81.979 c0,4.513-3.658,8.17-8.17,8.17s-8.17-3.657-8.17-8.17v-66.436c-1.948-0.13-3.856-0.953-5.323-2.466 c-3.14-3.24-3.06-8.412,0.181-11.553l7.626-7.391c2.356-2.283,5.85-2.938,8.872-1.657 C113.509,208.768,115.472,211.73,115.472,215.012z M396.527,296.989v-66.436c-1.948-0.13-3.856-0.953-5.323-2.466 c-3.14-3.24-3.06-8.412,0.181-11.553l7.626-7.391c2.356-2.283,5.85-2.938,8.872-1.657c3.021,1.279,4.985,4.242,4.985,7.523v81.979 c0,4.513-3.658,8.17-8.17,8.17S396.527,301.503,396.527,296.989z M345.132,419.925c0,4.512-3.658,8.17-8.17,8.17H175.038 c-4.512,0-8.17-3.658-8.17-8.17c0-4.512,3.658-8.17,8.17-8.17h161.925C341.474,411.754,345.132,415.411,345.132,419.925z"/> </g>
</svg>